<svg width="59" height="56" viewBox="0 0 59 56" fill="none" xmlns="http://www.w3.org/2000/svg">
<path d="M0 0V56H59V0H0ZM26.5039 38.7625L24.4297 31.7188H16.6859L14.6578 38.7625H10.325L17.7 14.7438V13.0813H23.3234L31.2977 38.7625H26.5039ZM47.707 30.1875H36.6445C37.5203 38.5875 46.4164 34.5625 46.4164 34.5625V38.0625C46.4164 38.0625 45.8172 39.2 39.5945 39.2C33.3719 39.2 32.0812 31.1938 32.0812 31.1938V29.1375C32.0812 29.1375 32.6805 19.5125 40.0555 19.5125C47.4305 19.5125 47.6609 25.9 47.6609 25.9V30.1875H47.707Z" fill="#1B1B21"/>
</svg>
