<svg width="14" height="17" viewBox="0 0 14 17" fill="none" xmlns="http://www.w3.org/2000/svg">
<path d="M13.9434 4.30154L13.9824 4.27405C13.9045 4.12288 13.7878 3.98545 13.6711 3.91673L7.40624 0.0962005C7.30247 0.0274859 7.15979 0 7.00415 0C6.8485 0 6.70582 0.0412288 6.60206 0.0962005L0.376149 3.93048C0.155648 4.06791 0 4.41148 0 4.67259V12.3274C0 12.4786 0.0259412 12.6435 0.116736 12.7947L0.0907945 12.8084C0.155648 12.9184 0.246442 13.0146 0.337237 13.0695L6.58909 16.9038C6.69285 16.9725 6.83553 17 6.99118 17C7.14682 17 7.2895 16.9588 7.39327 16.9038L13.6192 13.0695C13.8397 12.9321 13.9953 12.5885 13.9953 12.3274V4.65885C14.0083 4.54891 13.9953 4.42522 13.9434 4.30154ZM7.00415 13.9216C4.17655 13.9216 1.88074 11.4891 1.88074 8.49313C1.88074 5.49717 4.17655 3.06467 7.00415 3.06467C8.91083 3.06467 10.5711 4.17785 11.4531 5.81326L9.76689 6.84398C9.22213 5.81326 8.18447 5.12611 7.00415 5.12611C5.25311 5.12611 3.82634 6.63783 3.82634 8.49313C3.82634 10.3484 5.25311 11.8601 7.00415 11.8601C8.18447 11.8601 9.22213 11.173 9.76689 10.156L11.4401 11.2005C10.5581 12.8221 8.89786 13.9216 7.00415 13.9216ZM13.6192 8.21827H13.2041L13.0874 8.76799H13.6192V9.45513H12.9706L12.815 10.2797H12.1794L12.3351 9.45513H11.8422L11.6865 10.2797H11.064L11.2196 9.45513H10.8953V8.76799H11.3493L11.466 8.21827H10.8953V7.53112H11.5828L11.7384 6.70655H12.374L12.2183 7.53112H12.7112L12.8669 6.70655H13.4895L13.3338 7.53112H13.6192V8.21827ZM11.9719 8.76799H12.4648L12.5815 8.21827H12.0886L11.9719 8.76799Z" fill="#1B1B21"/>
</svg>
