<svg width="12" height="17" viewBox="0 0 12 17" fill="none" xmlns="http://www.w3.org/2000/svg">
<path d="M0 3.38529L1.09213 15.6391L5.99256 17L10.9067 15.6374L12 3.38529H0ZM9.36747 10.222L9.0494 13.1864L9.05062 13.4403L6 14.2927L5.99756 14.2949L2.92258 13.4519L2.71455 11.1038H4.22247L4.32939 12.2908L6.00054 12.737L6 12.739V12.7347L7.67751 12.2614L7.85455 10.2913H4.34807L4.31802 9.9724L4.24954 9.20773L4.21367 8.80177H7.988L8.12524 7.31224H2.37658L2.3464 6.96165L2.27792 6.14512L2.24205 5.68729H9.76702L9.73088 6.13876L9.36747 10.222ZM9.38371 1.811L8.41611 0.677059H9.38371V0H7.21814V0.590802L8.35371 1.62494H7.21814V2.302H9.38371V1.811ZM6.81209 1.811L5.89077 0.677059H6.81209V0H4.78186V0.590802L5.82851 1.62494H4.78186V2.302H6.81209V1.811ZM4.37582 1.62494H3.29303V0.677059H4.37582V0H2.48094V2.302H4.37582V1.62494Z" fill="#1B1B21"/>
</svg>
