<svg width="19" height="17" viewBox="0 0 19 17" fill="none" xmlns="http://www.w3.org/2000/svg">
<path d="M7.77961 0C3.48687 0 0.00705114 0.584752 0.00031338 1.3059L0 1.30453V5.47807C0 6.20029 3.4828 6.78321 7.77961 6.78321C12.0761 6.78321 15.5591 6.19662 15.5591 5.47807V1.30453L15.5587 1.30606C15.552 0.584752 12.0716 0 7.77961 0ZM5.07385 2.53382C5.29165 2.54758 5.51337 2.55966 5.73979 2.56991C5.64985 2.56593 5.55489 2.56379 5.4662 2.55921C5.33145 2.55217 5.20531 2.54208 5.07385 2.53382ZM8.27867 2.61273C8.11195 2.61456 7.94899 2.61838 7.77961 2.61838V2.61808C7.67713 2.61808 7.57982 2.61487 7.47844 2.61426C7.57904 2.61487 7.67791 2.61685 7.77961 2.61685C7.94805 2.61685 8.11289 2.61441 8.27867 2.61273ZM0 6.54542V10.1802C0 10.9031 3.4828 11.4854 7.77961 11.4854C8.79842 11.4854 9.76521 11.4505 10.656 11.3906C11.3332 9.7218 13.0004 8.54113 14.9512 8.54113C15.1575 8.54113 15.3601 8.55566 15.5591 8.5812V6.54542C15.5591 7.26826 12.0761 7.85072 7.77961 7.85072C3.4828 7.85072 0 7.26444 0 6.54542ZM14.9512 9.09729C13.3408 9.09729 11.9504 10.0146 11.2981 11.343C11.2522 11.4374 11.2101 11.5335 11.172 11.6311C11.1406 11.7109 11.1106 11.7917 11.0844 11.8736V11.8739C11.0582 11.9571 11.0348 12.0411 11.0144 12.1258C11.0097 12.1448 11.0056 12.1637 11.0012 12.1828C10.9814 12.2677 10.9644 12.3532 10.9504 12.4391C10.9184 12.6408 10.9023 12.8446 10.9023 13.0486C10.9023 14.4688 11.6701 15.7134 12.8224 16.4097C12.8984 16.4556 12.976 16.499 13.055 16.54C13.0597 16.5425 13.0647 16.5446 13.0694 16.5472C13.1404 16.5836 13.2131 16.6179 13.2864 16.6503C13.2983 16.6555 13.3102 16.661 13.3223 16.666C13.4791 16.7335 13.6413 16.7914 13.808 16.8393C13.8936 16.8638 13.9801 16.8855 14.0672 16.9044C14.0816 16.9075 14.096 16.9112 14.1106 16.9142C14.1946 16.9316 14.2798 16.9463 14.3658 16.9586L14.4022 16.9628C14.4768 16.9728 14.5517 16.9804 14.6275 16.9862L14.6863 16.9908C14.774 16.9962 14.8621 17 14.9512 17C15.7579 17.0007 16.5464 16.7658 17.215 16.3253C17.4301 16.1835 17.6308 16.0218 17.8143 15.8426C18.2778 15.3899 18.6222 14.8345 18.8181 14.2238C18.8982 13.9727 18.9523 13.7143 18.9795 13.4526C19.0052 13.2048 19.0067 12.9551 18.9842 12.7069C18.9831 12.6945 18.9825 12.6818 18.9811 12.6693C18.9689 12.5456 18.9507 12.4227 18.9267 12.3007C18.9072 12.2016 18.8839 12.1033 18.8566 12.0059C18.851 11.9859 18.8449 11.966 18.8389 11.946C18.8103 11.8489 18.7778 11.7529 18.7416 11.6583C18.7361 11.6444 18.7302 11.6308 18.7247 11.6169C18.6861 11.5189 18.6434 11.4225 18.5968 11.3279C18.5932 11.321 18.5893 11.3141 18.5859 11.3071C18.5381 11.2121 18.4864 11.1191 18.4309 11.0282L18.422 11.0135C18.3657 10.9227 18.3057 10.8341 18.2421 10.748C18.235 10.7384 18.2285 10.7286 18.2213 10.719C18.1599 10.6374 18.0954 10.5581 18.0279 10.4813C18.0158 10.4676 18.0035 10.454 17.9911 10.4404C17.9237 10.3654 17.8533 10.2926 17.7803 10.2229C17.7694 10.2125 17.7579 10.2026 17.7469 10.1923C17.6705 10.1207 17.5913 10.052 17.5094 9.98634C17.5031 9.9813 17.4966 9.97656 17.4901 9.97151C17.4058 9.90504 17.3189 9.84188 17.2294 9.7822C17.2252 9.77929 17.2211 9.77624 17.2169 9.77348L17.215 9.77226C17.1258 9.71389 17.0344 9.659 16.9408 9.60772C16.9292 9.6013 16.9177 9.59442 16.906 9.588C16.7991 9.53063 16.6896 9.47803 16.5779 9.43034C16.4839 9.38997 16.3878 9.35281 16.2902 9.31948C16.2722 9.31336 16.2538 9.30755 16.2357 9.30159C16.1369 9.2691 16.0368 9.24038 15.9357 9.21549C15.9198 9.21167 15.9033 9.20861 15.8872 9.20479C15.7793 9.1794 15.6703 9.15838 15.5606 9.14179L15.5591 9.14148C15.3579 9.11202 15.1547 9.09725 14.9512 9.09729ZM13.525 10.7662L17.29 12.8873L13.525 15.0084V10.7662ZM0 11.2482V15.4213C0 16.144 3.4828 16.7264 7.77961 16.7264C9.34339 16.7264 10.7781 16.6445 11.9931 16.5105C10.978 15.6835 10.332 14.4399 10.332 13.0485C10.3323 12.8573 10.3451 12.6662 10.3702 12.4766C9.50766 12.5276 8.64373 12.5531 7.77961 12.5529C3.4828 12.5529 0 11.9669 0 11.2482Z" fill="#1B1B21"/>
</svg>
