<svg width="37" height="56" viewBox="0 0 37 56" fill="none" xmlns="http://www.w3.org/2000/svg">
<path d="M9.25 56C14.3698 56 18.5 51.8326 18.5 46.6667V37.3333H9.25C4.13023 37.3333 0 41.5008 0 46.6667C0 51.8326 4.13023 56 9.25 56ZM0 28C0 22.8341 4.13023 18.6667 9.25 18.6667H18.5V37.3333H9.25C4.13023 37.3333 0 33.1659 0 28ZM0 9.33333C0 4.16744 4.13023 0 9.25 0H18.5V18.6667H9.25C4.13023 18.6667 0 14.4992 0 9.33333ZM18.5 0H27.75C32.8698 0 37 4.16744 37 9.33333C37 14.4992 32.8698 18.6667 27.75 18.6667H18.5V0ZM37 28C37 33.1659 32.8698 37.3333 27.75 37.3333C22.6302 37.3333 18.5 33.1659 18.5 28C18.5 22.8341 22.6302 18.6667 27.75 18.6667C32.8698 18.6667 37 22.8341 37 28Z" fill="#1B1B21"/>
</svg>
