<svg width="45" height="30" viewBox="0 0 45 30" fill="none" xmlns="http://www.w3.org/2000/svg">
<path d="M44.9096 23.7067L40.7386 3.83238C40.27 1.59882 38.2996 0 36.0182 0H31.9774C30.6185 0 29.5166 1.10197 29.5166 2.46085C29.5166 3.81964 28.4145 4.9217 27.0557 4.9217H24.5118H20.488H17.9448C16.5852 4.9217 15.4832 3.81973 15.4832 2.46085V1.82681C15.4832 0.467227 14.382 0 13.0224 0H8.98163C6.70016 0 4.72983 1.59882 4.2612 3.83238L0.0900803 23.7067C-0.149861 24.8523 0.0942991 26.0459 0.765608 27.0044C1.43692 27.9628 2.47561 28.6011 3.63392 28.7664L6.04836 29.112C7.76197 29.3562 9.45158 28.5328 10.3157 27.0332L14.6309 19.5366C15.1579 18.6217 16.1347 18.0574 17.1903 18.0574H27.8094C28.8657 18.0574 29.841 18.6217 30.3681 19.5366L34.6847 27.0332C35.5482 28.5328 37.2379 29.3562 38.9514 29.112L41.3664 28.7664C42.5248 28.601 43.5628 27.9628 44.2341 27.0044C44.9054 26.0459 45.1503 24.8524 44.9096 23.7067ZM15.1362 12.4438H12.0686V15.5107H9.63729V12.4438H6.56991V10.0125H9.63738V6.94565H12.0687V10.0125H15.1363L15.1362 12.4438ZM34.4208 6.01963C35.4433 6.01963 36.2723 6.84862 36.2723 7.87184C36.2723 8.89427 35.4433 9.72326 34.4208 9.72326C33.3969 9.72326 32.5679 8.89427 32.5679 7.87184C32.5679 6.84862 33.3969 6.01963 34.4208 6.01963ZM30.7158 13.4283C29.6932 13.4283 28.8636 12.5987 28.8636 11.5754C28.8636 10.5529 29.6932 9.72317 30.7158 9.72317C31.739 9.72317 32.568 10.5529 32.568 11.5754C32.5679 12.5987 31.7389 13.4283 30.7158 13.4283ZM34.4208 17.132C33.3969 17.132 32.5679 16.3023 32.5679 15.2798C32.5679 14.2573 33.3969 13.4283 34.4208 13.4283C35.4433 13.4283 36.2723 14.2573 36.2723 15.2798C36.2723 16.3023 35.4433 17.132 34.4208 17.132ZM38.1237 13.4283C37.1013 13.4283 36.2723 12.5987 36.2723 11.5754C36.2723 10.5529 37.1013 9.72317 38.1237 9.72317C39.1469 9.72317 39.9766 10.5529 39.9766 11.5754C39.9765 12.5987 39.1469 13.4283 38.1237 13.4283Z" fill="#1B1B21"/>
</svg>
