<svg width="17" height="17" viewBox="0 0 17 17" fill="none" xmlns="http://www.w3.org/2000/svg">
<path d="M16.6797 7.74281L9.25879 0.320583C8.83171 -0.106861 8.13859 -0.106861 7.71084 0.320583L6.17016 1.86202L8.12485 3.81717C8.57926 3.66378 9.10005 3.76667 9.46209 4.1288C9.63463 4.30153 9.75509 4.51934 9.80968 4.75733C9.86428 4.99532 9.85081 5.24387 9.77082 5.47456L11.6547 7.35914C12.1105 7.20198 12.6365 7.30352 13.0003 7.66821C13.5092 8.17686 13.5092 9.00144 13.0003 9.51037C12.8793 9.6314 12.7357 9.72741 12.5777 9.79291C12.4196 9.85842 12.2502 9.89213 12.0791 9.89213C11.9081 9.89213 11.7387 9.85842 11.5806 9.79291C11.4226 9.72741 11.279 9.6314 11.158 9.51037C10.9763 9.3285 10.8524 9.09694 10.802 8.84482C10.7516 8.5927 10.7768 8.33129 10.8746 8.0935L9.11782 6.33618L9.11755 10.9609C9.24501 11.0237 9.36139 11.1068 9.46209 11.2071C9.9709 11.7157 9.9709 12.54 9.46209 13.0498C8.95329 13.5584 8.12862 13.5584 7.62036 13.0498C7.11169 12.5402 7.06995 11.7159 7.57849 11.2071C7.70424 11.0814 7.82824 10.9865 7.96288 10.9229V6.25538C7.82824 6.19181 7.70438 6.09754 7.57835 5.97109C7.19315 5.58593 7.12112 5.02032 7.31877 4.54681L5.40244 2.61927L0.319267 7.70847C-0.108213 8.13632 -0.10552 8.82961 0.32196 9.25718L7.74409 16.6794C8.1713 17.1069 8.86497 17.1069 9.29285 16.6794L16.6792 9.29166C17.1067 8.86395 17.1071 8.17026 16.6797 7.74281Z" fill="#1B1B21"/>
</svg>
