<svg width="47" height="47" viewBox="0 0 47 47" fill="none" xmlns="http://www.w3.org/2000/svg">
<path fill-rule="evenodd" clip-rule="evenodd" d="M23.5 0C36.479 0 47 10.7863 47 24.0944C47 34.7375 40.2743 43.7663 30.9424 46.9552C29.751 47.1926 29.328 46.4402 29.328 45.7986C29.328 45.0043 29.3562 42.41 29.3562 39.1858C29.3562 36.9392 28.6042 35.4729 27.7606 34.7256C32.994 34.1287 38.493 32.0911 38.493 22.8368C38.493 20.2048 37.5812 18.057 36.0725 16.3697C36.3169 15.761 37.1229 13.3103 35.8422 9.99209C35.8422 9.99209 33.8729 9.34647 29.3867 12.4626C27.5091 11.9291 25.4975 11.6607 23.5 11.6513C21.5025 11.6607 19.4933 11.9291 17.618 12.4626C13.1271 9.34647 11.1531 9.99209 11.1531 9.99209C9.87705 13.3103 10.6831 15.761 10.9252 16.3697C9.4235 18.057 8.50466 20.2048 8.50466 22.8368C8.50466 32.0676 13.9919 34.1365 19.2113 34.7451C18.5392 35.3467 17.9305 36.408 17.719 37.966C16.3795 38.5817 12.9767 39.6473 10.8805 35.9649C10.8805 35.9649 9.63735 33.6498 7.27795 33.4806C7.27795 33.4806 4.9867 33.4502 7.11815 34.9448C7.11815 34.9448 8.6574 35.685 9.72665 38.4698C9.72665 38.4698 11.1061 42.7702 17.6438 41.3132C17.6556 43.3271 17.6767 45.2252 17.6767 45.7986C17.6767 46.4355 17.2443 47.1808 16.0716 46.9575C6.73274 43.7733 0 34.7399 0 24.0944C0 10.7863 10.5233 0 23.5 0Z" fill="#51516D"/>
</svg>
