<svg width="13" height="17" viewBox="0 0 13 17" fill="none" xmlns="http://www.w3.org/2000/svg">
<path d="M0 3.45145L1.18308 15.683L6.49195 17L11.8156 15.7079L13 3.45145H0ZM10.5392 6.23608L10.465 7.02967L10.4324 7.39627H4.20479L4.35357 9.02861H10.2843L10.2447 9.33209L9.86213 13.2645L9.83405 13.4944L6.5 14.3288V14.3281L6.49605 14.3298L3.16391 13.525L2.93774 11.2051H4.57155L4.68727 12.3559L6.49912 12.7829L6.5 12.751V12.7527L8.3158 12.3923L8.5054 10.5249H2.86503L2.46506 6.33035L2.426 5.89996H10.5781L10.5392 6.23608ZM1.22697 0H2.04944V0.755773H2.80197V0H3.62459V2.28827H2.80197V1.52202H2.04958V2.28827H1.22697V0ZM4.70614 0.758902H3.98198V0H6.2532V0.758902H5.52875V2.28827H4.70614V0.758902ZM6.61367 0H7.47125L7.99893 0.804063L8.52603 0H9.38404V2.28827H8.56465V1.15406L7.99893 1.96765H7.98459L7.41844 1.15406V2.28827H6.61352L6.61367 0ZM9.79352 0H10.6163V1.53195H11.773V2.2884H9.79352V0Z" fill="#1B1B21"/>
</svg>
