<svg width="59" height="56" viewBox="0 0 59 56" fill="none" xmlns="http://www.w3.org/2000/svg">
<path fill-rule="evenodd" clip-rule="evenodd" d="M21.992 30.2221H29.1885C27.9497 26.2221 26.7296 22.5244 25.5291 18.7661C24.3643 22.5377 23.1826 26.2221 21.992 30.2221ZM57.6479 0H0.885047C-0.138415 0 0.00812839 0.211555 0.00812839 1.14888V55.1016C0.00812839 56.038 -0.138415 55.9998 0.812946 55.9998H57.72C58.6709 55.9998 59 56.038 59 55.1011V1.21733C59 0.211555 58.6713 0 57.6479 0ZM35.73 42.2221C34.9636 42.2221 34.1944 42.1629 33.4317 42.2149C32.8816 42.2541 32.6976 42.0345 32.551 41.5812C31.8422 39.3896 31.0889 37.199 30.3796 35.0079C30.2368 34.567 30.0326 34.4061 29.5293 34.4119C26.9435 34.4403 24.3563 34.4376 21.77 34.4088C21.2255 34.4025 20.9751 34.5403 20.8196 35.0532C20.1613 37.2327 19.4413 39.3945 18.776 41.5718C18.6318 42.0438 18.4127 42.2087 17.8845 42.1958C16.3311 42.1589 14.7753 42.1816 13.0744 42.1816C13.5234 40.8283 13.9307 39.5767 14.352 38.3305C16.9336 30.6861 19.5241 23.0417 22.087 15.3924C22.2659 14.8599 22.5145 14.6959 23.0903 14.7079C24.9097 14.7462 26.7305 14.7177 28.5508 14.7079C28.8912 14.7057 29.1234 14.7248 29.248 15.0919C32.2935 24.0324 35.3499 33.0279 38.4034 41.9674C38.4165 42.0078 38.4081 42.2221 38.4151 42.2221H35.73ZM45.4225 42.2221H39.8042V22.2221H45.4225V42.2221ZM42.4495 19.5239C40.7336 19.5217 39.5051 18.4004 39.4934 16.8262C39.4821 15.2564 40.7607 14.0888 42.4926 14.0871C44.238 14.0853 45.4679 15.2146 45.4815 16.8297C45.4937 18.4053 44.2328 19.5266 42.4495 19.5239Z" fill="#1B1B21"/>
</svg>
