<svg width="17" height="17" viewBox="0 0 17 17" fill="none" xmlns="http://www.w3.org/2000/svg">
<path d="M0 0V17H17V0H0ZM8.99218 14.4858C8.74127 14.9956 8.26227 15.3306 7.70726 15.4923C6.8544 15.6881 6.03867 15.5765 5.43184 15.2123C5.02574 14.9631 4.70859 14.5796 4.4933 14.1377L5.78802 13.3449C5.79931 13.3496 5.83331 13.4111 5.87874 13.4905C6.04384 13.7671 6.18623 13.963 6.46612 14.1005C6.74111 14.1943 7.34482 14.2543 7.57792 13.7704C7.72031 13.5242 7.67502 12.733 7.67502 11.8576C7.67489 10.4819 7.68128 9.112 7.68128 7.752H9.2737C9.2737 9.248 9.28187 10.6648 9.2737 12.1247C9.27711 13.0196 9.35476 13.8173 8.99218 14.4858ZM15.5982 14.0359C15.0447 15.9293 11.9586 15.9907 10.7254 14.7398C10.4648 14.4454 10.3015 14.2916 10.146 13.9517C10.8014 13.5747 10.8014 13.5747 11.4391 13.2057C11.7855 13.7382 12.1058 14.031 12.682 14.1508C13.4637 14.2463 14.2502 13.9777 14.0738 13.1474C13.8925 12.4693 12.4731 12.3043 11.5071 11.5792C10.5264 10.9205 10.2966 9.32008 11.1025 8.40562C11.3711 8.06738 11.8291 7.81497 12.3098 7.69366L12.8113 7.62878C13.7744 7.60934 14.3763 7.86366 14.8182 8.35706C14.9411 8.48164 15.0415 8.61601 15.2291 8.90718C14.7162 9.23413 14.7178 9.231 13.983 9.70673C13.826 9.36863 13.5656 9.15647 13.2903 9.06427C12.863 8.93479 12.3242 9.07555 12.2124 9.52707C12.1736 9.6662 12.1817 9.79567 12.2433 10.0255C12.4164 10.4203 12.9974 10.592 13.5185 10.8314C15.0188 11.4399 15.5254 12.0923 15.6499 12.8689C15.7699 13.5374 15.621 13.9711 15.5982 14.0359Z" fill="#1B1B21"/>
</svg>
