<svg width="12" height="17" viewBox="0 0 12 17" fill="none" xmlns="http://www.w3.org/2000/svg">
<path d="M3.86458 13.1467C1.36294 13.877 5.38665 15.3855 8.5721 13.9596C8.05032 13.7477 7.67609 13.5033 7.67609 13.5033C6.25569 13.7838 5.59678 13.8059 4.30737 13.652C3.24321 13.5247 3.86458 13.1467 3.86458 13.1467ZM8.1907 11.7222C6.30796 12.1007 5.22046 12.0885 3.84307 11.9401C2.778 11.825 3.47523 11.2857 3.47523 11.2857C0.720059 12.2412 5.00904 13.3254 8.85978 12.1486C8.45049 11.998 8.1907 11.7222 8.1907 11.7222ZM9.66612 3.47255C9.66625 3.47255 4.09621 4.92555 6.75635 8.12844C7.54157 9.07291 6.5504 9.92205 6.5504 9.92205C6.5504 9.92205 8.5433 8.84738 7.62825 7.50102C6.7733 6.24603 6.11791 5.62256 9.66612 3.47255ZM10.9693 14.5235C10.9693 14.5235 11.4293 14.9198 10.4625 15.2261C8.62437 15.8079 2.81032 15.9833 1.19544 15.2494C0.615389 14.9854 1.70367 14.6195 2.04609 14.5423C2.40311 14.4615 2.60698 14.4762 2.60698 14.4762C1.96149 14.0013 -1.56586 15.4091 0.815734 15.8129C7.30981 16.9128 12.6536 15.3176 10.9693 14.5235ZM8.73738 10.3924C9.04957 10.1699 9.48076 9.97666 9.48076 9.97666C9.48076 9.97666 8.25236 10.2061 7.02852 10.3136C5.5303 10.4449 3.92323 10.4708 3.11651 10.358C1.20665 10.0912 4.1636 9.35727 4.1636 9.35727C4.1636 9.35727 3.01497 9.2761 1.60304 9.98973C-0.0669838 10.8334 5.7339 11.218 8.73738 10.3924ZM9.46851 12.455C9.45443 12.4945 9.40751 12.5389 9.40751 12.5389C13.4839 11.4193 11.9851 8.5923 10.036 9.30784C9.86503 9.37103 9.77535 9.51797 9.77535 9.51797C9.77535 9.51797 9.88341 9.47249 10.1244 9.41992C11.1097 9.20542 12.5214 10.798 9.46851 12.455ZM6.02367 9.32649C5.42224 7.90618 3.38281 6.66359 6.02458 4.48375C9.31861 1.76719 7.62838 0 7.62838 0C8.3101 2.80658 5.22333 3.65436 4.10911 5.40221C3.35035 6.59318 4.48152 7.87295 6.02367 9.32649ZM9.57878 16.374C7.07779 16.8659 3.99284 16.8086 2.16366 16.493C2.16366 16.493 2.53829 16.8172 4.46379 16.9467C7.3935 17.1424 11.8936 16.8377 12 15.3892C12.0001 15.3892 11.7954 15.9383 9.57878 16.374Z" fill="#1B1B21"/>
</svg>
