<svg width="47" height="47" viewBox="0 0 47 47" fill="none" xmlns="http://www.w3.org/2000/svg">
<path d="M11.75 14.9546C13.5198 14.9546 14.9546 13.5198 14.9546 11.75C14.9546 9.98019 13.5198 8.54547 11.75 8.54547C9.98019 8.54547 8.54547 9.98019 8.54547 11.75C8.54547 13.5198 9.98019 14.9546 11.75 14.9546Z" fill="#51516D"/>
<path d="M8.54547 19.2273C8.54547 18.0474 9.50196 17.0909 10.6818 17.0909H12.8182C13.9981 17.0909 14.9546 18.0474 14.9546 19.2273V36.3182C14.9546 37.4981 13.9981 38.4546 12.8182 38.4546H10.6818C9.50196 38.4546 8.54547 37.4981 8.54547 36.3182V19.2273Z" fill="#51516D"/>
<path d="M21.3637 38.4546H23.5C24.6799 38.4546 25.6364 37.4981 25.6364 36.3182V26.7046C25.6364 23.5 32.0455 21.3637 32.0455 25.6364V36.3191C32.0455 37.499 33.0019 38.4546 34.1818 38.4546H36.3182C37.4981 38.4546 38.4546 37.4981 38.4546 36.3182V23.5C38.4546 19.2273 35.25 17.0909 30.9773 17.0909C26.7046 17.0909 25.6364 20.2955 25.6364 20.2955V19.2273C25.6364 18.0474 24.6799 17.0909 23.5 17.0909H21.3637C20.1837 17.0909 19.2273 18.0474 19.2273 19.2273V36.3182C19.2273 37.4981 20.1837 38.4546 21.3637 38.4546Z" fill="#51516D"/>
<path fill-rule="evenodd" clip-rule="evenodd" d="M40.5909 0C44.1306 0 47 2.86946 47 6.40909V40.5909C47 44.1306 44.1306 47 40.5909 47H6.40909C2.86946 47 0 44.1306 0 40.5909V6.40909C0 2.86946 2.86946 0 6.40909 0H40.5909ZM40.5909 4.27273C41.7708 4.27273 42.7273 5.22922 42.7273 6.40909V40.5909C42.7273 41.7708 41.7708 42.7273 40.5909 42.7273H6.40909C5.22922 42.7273 4.27273 41.7708 4.27273 40.5909V6.40909C4.27273 5.22922 5.22922 4.27273 6.40909 4.27273H40.5909Z" fill="#51516D"/>
</svg>
