<svg width="17" height="17" viewBox="0 0 17 17" fill="none" xmlns="http://www.w3.org/2000/svg">
<path d="M7.86737 11.8735C8.08678 11.7666 8.40168 11.8191 8.52413 12.0462C8.66359 12.2968 8.66053 12.6283 8.50594 12.8711C8.30406 13.1747 7.77188 13.1083 7.6396 12.7725C7.50573 12.4727 7.55766 12.0443 7.86737 11.8735ZM10.5611 12.2973C10.5672 12.0883 10.713 11.8807 10.9231 11.8352C11.0527 11.8134 11.2016 11.8361 11.2914 11.9405C11.3807 12.0353 11.3994 12.1681 11.4216 12.2911C11.1347 12.2927 10.848 12.287 10.5611 12.2973Z" fill="#1B1B21"/>
<path d="M8.12746 0H8.78528C10.501 0.0710547 12.197 0.649453 13.5722 1.68353C14.875 2.6516 15.8929 3.99938 16.4579 5.52261C16.7821 6.37088 16.9445 7.27308 17 8.1778V8.73707C16.945 10.2369 16.5134 11.728 15.7077 12.998C14.8045 14.445 13.4603 15.6184 11.8924 16.2954C10.866 16.7405 9.76227 16.9799 8.6437 17H8.35895C6.8004 16.9746 5.24981 16.5139 3.9367 15.6729C2.44973 14.7282 1.2653 13.3109 0.612664 11.673C0.251148 10.783 0.0585703 9.83078 0 8.87347V8.21512C0.0669375 6.30395 0.790633 4.41548 2.04664 2.96955C3.077 1.76773 4.44922 0.860625 5.96155 0.39007C6.66347 0.168672 7.39447 0.0544531 8.12746 0ZM3.34568 4.98352C3.3417 6.59759 3.34422 8.21153 3.34422 9.82507C3.53414 9.82653 3.72406 9.82653 3.91438 9.82653C3.90442 8.4409 3.9278 7.05566 3.9003 5.67043C3.96405 5.79089 4.02223 5.9148 4.09488 6.02995C4.91871 7.29273 5.72488 8.56641 6.54885 9.82812C6.77968 9.82507 7.01051 9.82507 7.24134 9.82866C7.24094 8.21366 7.24041 6.59866 7.24187 4.98366C7.05372 4.98183 6.86557 4.9813 6.67741 4.98206C6.68738 6.35269 6.65935 7.72331 6.69402 9.09248C5.8298 7.7176 4.95404 6.35056 4.07827 4.98259C3.83408 4.98109 3.58987 4.9814 3.34568 4.98352ZM8.50465 4.98206C8.48752 6.59706 8.50412 8.21206 8.49841 9.82653C9.35757 9.82454 10.2167 9.82972 11.0763 9.82388C11.0732 9.64892 11.0743 9.47391 11.0795 9.299C10.4138 9.29687 9.74777 9.29993 9.08159 9.29634C9.07176 8.7372 9.08105 8.17727 9.07627 7.61799C9.65998 7.60763 10.2437 7.61959 10.8267 7.61175C10.8253 7.44215 10.8253 7.27255 10.8242 7.10281C10.2416 7.12154 9.65905 7.09564 9.07587 7.10441C9.07747 6.5701 9.07853 6.03527 9.07853 5.5003C9.70262 5.5003 10.3267 5.49764 10.9503 5.50189C10.9492 5.3291 10.9503 5.15578 10.9524 4.98313C10.1362 4.981 9.32012 4.98206 8.50465 4.98206ZM11.5065 4.98923C11.507 5.15738 11.507 5.32498 11.5075 5.49259C11.9708 5.48728 12.4335 5.50707 12.8968 5.49724C12.8937 6.93998 12.8973 8.38166 12.8953 9.82348C13.0892 9.82919 13.2844 9.82812 13.4783 9.81152C13.4624 9.01571 13.494 8.21937 13.4576 7.42395C13.4665 7.06549 13.4483 6.70756 13.4732 6.3495C13.4872 6.06528 13.4364 5.78146 13.4685 5.49724C13.9355 5.50348 14.4029 5.49923 14.8697 5.49923C14.8676 5.32953 14.8709 5.15979 14.8796 4.9903C13.7549 4.97635 12.6302 4.97781 11.5065 4.98923ZM1.79961 9.17655C1.53704 9.29741 1.51991 9.71085 1.77982 9.8442C2.00826 10.0009 2.35158 9.79492 2.34122 9.52412C2.35888 9.25796 2.03708 9.0343 1.79961 9.17655ZM5.68172 11.2071C5.11368 11.6678 5.12045 12.694 5.74812 13.0997C6.10247 13.3248 6.55855 13.2782 6.93308 13.1282C6.93467 13.0458 6.93666 12.9637 6.93972 12.8812C6.58498 13.0665 6.08839 13.1043 5.78757 12.8002C5.39378 12.3703 5.4825 11.5692 6.0018 11.276C6.29545 11.1215 6.65351 11.1666 6.94291 11.3078C6.94198 11.2201 6.94238 11.1325 6.94291 11.0448C6.53159 10.8989 6.02358 10.9067 5.68172 11.2071ZM7.96702 11.567C7.71601 11.5963 7.46791 11.7291 7.3517 11.961C7.18529 12.2925 7.20441 12.7402 7.46645 13.0181C7.73673 13.3232 8.25602 13.3263 8.55286 13.0576C8.87493 12.7511 8.91132 12.1986 8.6534 11.8405C8.50093 11.6241 8.2187 11.5504 7.96702 11.567ZM10.3426 11.9287C10.1222 12.3116 10.1657 12.8916 10.5549 13.152C10.8448 13.3141 11.21 13.2625 11.4944 13.1111C11.4939 13.0292 11.4949 12.9471 11.4985 12.8657C11.2745 13.0078 10.9756 13.1122 10.7266 12.9689C10.5527 12.873 10.5003 12.6691 10.4724 12.4874C10.8542 12.4823 11.2355 12.4765 11.6179 12.4776C11.6079 12.2348 11.6022 11.9604 11.4253 11.7726C11.1333 11.4499 10.5429 11.5526 10.3426 11.9287ZM9.22516 11.6184V13.2132C9.31175 13.2132 9.39941 13.2132 9.4872 13.2138C9.49025 12.9223 9.48188 12.6302 9.49025 12.338C9.49238 12.1693 9.56024 11.9983 9.68734 11.8846C9.79373 11.8042 9.93743 11.8487 10.0594 11.8519C10.0578 11.7675 10.0567 11.6832 10.0563 11.5993C9.81816 11.5465 9.61323 11.6859 9.49291 11.8805C9.49025 11.7964 9.48759 11.7123 9.48613 11.6289C9.39901 11.6257 9.31175 11.6222 9.22516 11.6184Z" fill="#1B1B21"/>
</svg>
