<svg width="17" height="17" viewBox="0 0 17 17" fill="none" xmlns="http://www.w3.org/2000/svg">
<path d="M8.5 0C6.24566 0 4.08365 0.895533 2.48959 2.48959C0.895533 4.08365 0 6.24566 0 8.5C0 10.7543 0.895533 12.9163 2.48959 14.5104C4.08365 16.1045 6.24566 17 8.5 17C10.1797 16.9967 11.8207 16.4958 13.2159 15.5606L6.24405 6.55297V11.8971H5.1V5.1H6.53012L14.117 14.8729C15.0222 14.0759 15.7474 13.0955 16.2444 11.9967C16.7415 10.8979 16.9991 9.70598 17 8.5C17 6.24566 16.1045 4.08365 14.5104 2.48959C12.9163 0.895533 10.7543 0 8.5 0ZM10.861 5.1H11.9944V11.5781L10.861 10.0898V5.1ZM14.0724 14.9175L14.0577 14.9303C14.0626 14.926 14.0675 14.9218 14.0724 14.9175Z" fill="#1B1B21"/>
</svg>
