<svg width="26" height="17" viewBox="0 0 26 17" fill="none" xmlns="http://www.w3.org/2000/svg">
<path d="M17.4827 3.79268e-06C17.4577 -0.000182793 17.4332 0.00651808 17.4114 0.0194517C17.3887 0.0335241 17.3697 0.0535755 17.3564 0.0776802C17.343 0.101785 17.3358 0.129134 17.3352 0.157099V4.24763C17.3348 4.26775 17.3296 4.28744 17.3203 4.30493C17.3109 4.32243 17.2976 4.33719 17.2816 4.34789C17.2654 4.35718 17.2472 4.36204 17.2288 4.36204C17.2104 4.36204 17.1922 4.35718 17.176 4.34789L16.5532 3.96477C16.5075 3.9369 16.4558 3.92225 16.4031 3.92225C16.3505 3.92225 16.2987 3.9369 16.253 3.96477L13.7612 5.50633C13.715 5.53398 13.6765 5.57413 13.6496 5.6227C13.6227 5.67128 13.6084 5.72655 13.608 5.78292V8.85957C13.608 8.9728 13.6671 9.08019 13.7612 9.13681L16.2534 10.6786C16.2991 10.7064 16.3507 10.721 16.4033 10.721C16.4559 10.721 16.5076 10.7064 16.5532 10.6786L19.0455 9.13681C19.1395 9.08019 19.1986 8.9728 19.1986 8.85957V1.18935C19.1986 1.06985 19.1395 0.962455 19.0455 0.906273L17.5586 0.0194517C17.5351 0.00677511 17.5091 0.000116197 17.4827 3.79268e-06ZM2.77987 3.83901C2.73315 3.83901 2.68623 3.85759 2.6452 3.88222L0.152956 5.41838C0.106159 5.44679 0.0673211 5.48795 0.0404393 5.53763C0.0135575 5.58731 -0.000398032 5.64371 8.64042e-06 5.70103L0.00610215 9.8285C0.00610215 9.88534 0.0349447 9.94217 0.0820678 9.96745C0.103897 9.98285 0.129507 9.99106 0.155698 9.99106C0.181889 9.99106 0.207499 9.98285 0.229328 9.96745L1.71106 9.0614C1.75715 9.0336 1.79551 8.99333 1.82226 8.94468C1.84902 8.89604 1.86321 8.84073 1.8634 8.78437V6.85277C1.8634 6.73954 1.92231 6.63215 2.01655 6.57553L2.6452 6.18549C2.69114 6.15568 2.74414 6.14046 2.79794 6.14163C2.85075 6.14163 2.90397 6.15395 2.9452 6.18549L3.57405 6.57553C3.6681 6.63215 3.7272 6.73954 3.7272 6.85277V8.78459C3.7272 8.89739 3.7857 9.005 3.87954 9.06118L5.34929 9.96745C5.37215 9.98281 5.39863 9.99096 5.42567 9.99096C5.4527 9.99096 5.47918 9.98281 5.50204 9.96745C5.52544 9.95385 5.54493 9.93374 5.55842 9.90927C5.57191 9.88479 5.57889 9.85687 5.57861 9.8285V5.70103C5.57861 5.5878 5.51971 5.48062 5.42546 5.42379L2.93911 3.88222C2.8973 3.85838 2.85146 3.84362 2.80424 3.83879H2.77966L2.77987 3.83901ZM23.2276 3.88374V3.88417L23.2272 3.8846C23.1758 3.8846 23.1247 3.89865 23.0775 3.92717L20.5851 5.46787C20.491 5.52492 20.4328 5.63188 20.4328 5.74532V8.8224C20.4328 8.93563 20.491 9.04281 20.5851 9.09921L23.0597 10.6094C23.1042 10.6373 23.155 10.652 23.2067 10.652C23.2584 10.652 23.3092 10.6373 23.3538 10.6094L24.8528 9.71635C24.8761 9.7027 24.8955 9.68256 24.9089 9.65809C24.9223 9.63362 24.9293 9.60574 24.9289 9.57741C24.9292 9.54919 24.9222 9.52144 24.9088 9.4971C24.8954 9.47275 24.876 9.45272 24.8528 9.43912L22.349 7.89712C22.3261 7.88281 22.307 7.86247 22.2937 7.83806C22.2803 7.81364 22.2731 7.78598 22.2728 7.75774V6.79508C22.2726 6.76691 22.2795 6.73921 22.2929 6.71494C22.3064 6.69066 22.3257 6.67071 22.349 6.65721L23.1318 6.17901C23.1546 6.16367 23.1811 6.15554 23.2081 6.15554C23.2352 6.15554 23.2616 6.16367 23.2845 6.17901L24.0655 6.65721C24.0882 6.67136 24.1072 6.69145 24.1206 6.71557C24.134 6.7397 24.1414 6.76706 24.1421 6.79508V7.55008C24.1421 7.60691 24.1713 7.66353 24.2182 7.68859C24.2411 7.70404 24.2677 7.71225 24.2948 7.71225C24.3219 7.71225 24.3485 7.70404 24.3714 7.68859L25.8523 6.76374C25.8978 6.73569 25.9354 6.69529 25.9613 6.64669C25.9873 6.5981 26.0006 6.54304 26 6.48715V5.73841C26 5.62518 25.9407 5.51822 25.8523 5.46139L23.3781 3.92695C23.3324 3.89886 23.2806 3.88389 23.2278 3.88352L23.2276 3.88374ZM9.61007 3.89432C9.56145 3.89444 9.5137 3.90807 9.47155 3.93387L6.99962 5.46095L7.86449 7.14859L9.63932 3.89735C9.62968 3.89604 9.61999 3.89511 9.61028 3.89454H9.60987L9.61007 3.89432ZM9.72504 3.9263L11.4733 7.12742L12.2949 5.51865C12.2796 5.50206 12.2626 5.48748 12.2441 5.47522L10.9703 4.68801L9.74413 3.9343C9.73804 3.93106 9.73134 3.9289 9.72504 3.9263ZM9.67426 3.93927L7.89211 7.20305L9.65964 10.6529C9.66451 10.6518 9.66939 10.6514 9.67426 10.6498L11.4452 7.1823L9.67406 3.93949L9.67426 3.93927ZM6.95717 5.48905C6.92056 5.51629 6.89076 5.55265 6.87037 5.59494C6.84998 5.63723 6.83961 5.68418 6.84017 5.73171V8.82197C6.84017 8.87124 6.85276 8.91921 6.8743 8.96178L7.83463 7.20218L6.95717 5.48905ZM12.3296 5.56295L11.5027 7.18144L12.3798 8.78783V5.73171C12.3798 5.67121 12.3611 5.61222 12.3294 5.56316L12.3296 5.56295ZM16.4033 6.18204C16.4165 6.18204 16.4297 6.18528 16.4419 6.19176L17.2936 6.72074C17.3171 6.73327 17.3291 6.76417 17.3291 6.78946V7.84677C17.3291 7.87832 17.3169 7.90382 17.2936 7.91635L16.4413 8.44468C16.4294 8.45086 16.4163 8.45406 16.403 8.45406C16.3897 8.45406 16.3767 8.45086 16.3647 8.44468L15.5127 7.91678C15.4891 7.90425 15.4769 7.87248 15.4769 7.8472V6.78989C15.4769 6.75834 15.4893 6.73349 15.5127 6.72074L16.3647 6.19176C16.3767 6.18538 16.3899 6.18205 16.4033 6.18204ZM23.2189 6.60989C23.2084 6.61 23.1981 6.61347 23.1895 6.61983L22.7129 6.91565C22.704 6.92156 22.6966 6.92984 22.6915 6.93969C22.6865 6.94954 22.6839 6.96062 22.6841 6.97183V7.56391C22.6841 7.58898 22.6953 7.60799 22.7129 7.62053L23.1895 7.91635C23.1982 7.92247 23.2084 7.92574 23.2188 7.92574C23.2292 7.92574 23.2394 7.92247 23.2482 7.91635L23.7243 7.62031C23.7332 7.61431 23.7406 7.60599 23.7457 7.59613C23.7508 7.58626 23.7535 7.57518 23.7535 7.56391V6.97227C23.7536 6.96102 23.7509 6.94994 23.7458 6.9401C23.7407 6.93026 23.7333 6.92199 23.7243 6.91608L23.2482 6.61983C23.2395 6.61374 23.2293 6.6105 23.2189 6.61054V6.61011V6.60989ZM11.4749 7.23654L9.74596 10.6215L9.7488 10.62L12.2445 9.07782C12.3142 9.0359 12.3589 8.96416 12.3739 8.88269L11.4749 7.23654ZM7.86286 7.25707L6.90517 9.01105C6.92548 9.03763 6.94924 9.06075 6.97626 9.07803L9.44494 10.604L9.47135 10.6202H9.47196C9.49118 10.6319 9.51164 10.641 9.53289 10.6475C9.53919 10.6496 9.54548 10.6507 9.55158 10.6522C9.56376 10.655 9.57555 10.657 9.58773 10.6581C9.59362 10.6587 9.59931 10.6585 9.6052 10.6585L7.86286 7.25707ZM12.8413 10.1511C12.7545 10.1511 12.668 10.1727 12.5945 10.2168L10.2485 11.6711C10.1732 11.718 10.1107 11.785 10.0674 11.8656C10.024 11.9462 10.0013 12.0374 10.0015 12.1303V15.0302C10.0015 15.219 10.0955 15.3951 10.2483 15.4898L10.8659 15.8671C11.1655 16.0244 11.2712 16.0235 11.4062 16.0235C11.847 16.0235 12.1001 15.7344 12.1001 15.2374V12.3757C12.0999 12.3559 12.0925 12.3369 12.0794 12.3227C12.0664 12.3085 12.0487 12.3003 12.03 12.2997H11.7304C11.7115 12.2999 11.6935 12.308 11.6801 12.3222C11.6667 12.3364 11.6591 12.3556 11.6589 12.3757V15.2385C11.6589 15.4587 11.4424 15.6791 11.0957 15.4904L10.4546 15.0941C10.4311 15.0816 10.4193 15.0494 10.4193 15.0243V12.1233C10.4193 12.0983 10.4311 12.0665 10.4546 12.0542L12.7996 10.6073C12.8173 10.5947 12.8467 10.5947 12.8707 10.6073L15.2155 12.054C15.2389 12.0669 15.2512 12.092 15.2512 12.1231V15.0239C15.2512 15.0552 15.2391 15.0811 15.2155 15.0937L12.8701 16.5471C12.8524 16.5596 12.823 16.5596 12.799 16.5471L12.2 16.1631C12.1821 16.1506 12.1586 16.1445 12.1411 16.1566C11.9766 16.2577 11.9475 16.2707 11.7887 16.3273C11.7534 16.3399 11.6947 16.3645 11.8121 16.4336L12.5945 16.9313C12.6708 16.9751 12.7529 17 12.8413 17C12.9294 17 13.0172 16.9751 13.0876 16.9438L15.4328 15.4904C15.5082 15.4433 15.5706 15.376 15.6139 15.2953C15.6572 15.2145 15.6798 15.1231 15.6796 15.0302V12.1303C15.6796 11.9414 15.5856 11.7659 15.4328 11.6715L13.0876 10.2172C13.0121 10.1733 12.9273 10.1504 12.8413 10.1511ZM16.5028 11.4755C16.3824 11.476 16.2671 11.5274 16.1823 11.6183C16.0975 11.7093 16.0501 11.8323 16.0505 11.9604C16.0502 12.0885 16.0976 12.2114 16.1824 12.3022C16.2673 12.3931 16.3825 12.4444 16.5028 12.4449C16.75 12.4449 16.9558 12.2245 16.9558 11.9604C16.9552 11.8325 16.9074 11.71 16.8226 11.6194C16.7379 11.5287 16.623 11.4771 16.5028 11.4757V11.4755ZM16.4968 11.5568H16.4974C16.5475 11.5561 16.5973 11.5661 16.6438 11.5861C16.6902 11.6061 16.7325 11.6358 16.7681 11.6733C16.8037 11.7109 16.8319 11.7556 16.8511 11.8049C16.8703 11.8542 16.88 11.9071 16.8798 11.9604C16.8798 12.1808 16.709 12.3688 16.4974 12.3688C16.2918 12.3688 16.1208 12.1869 16.1208 11.9604C16.1208 11.734 16.2973 11.5572 16.4968 11.5568ZM16.3322 11.6894V12.2426H16.4326V12.0237H16.5215C16.5569 12.0237 16.5682 12.0363 16.5743 12.0676C16.5743 12.0741 16.5918 12.2122 16.5918 12.2372H16.6974C16.6852 12.2122 16.6798 12.1361 16.6739 12.092C16.6682 12.0229 16.6625 11.973 16.5918 11.9667C16.6272 11.9539 16.6852 11.9354 16.6852 11.8347C16.6852 11.6899 16.5674 11.6899 16.5087 11.6899L16.3322 11.6894ZM16.4212 11.7776H16.5028C16.5325 11.7776 16.5798 11.7776 16.5798 11.8532C16.5798 11.8783 16.5678 11.9289 16.5028 11.9289H16.4212V11.7776ZM13.4823 12.2119C12.812 12.2119 12.4115 12.5142 12.4115 13.024C12.4115 13.5716 12.8114 13.7215 13.4522 13.7907C14.222 13.8728 14.281 13.9927 14.281 14.1563C14.281 14.4394 14.0693 14.5584 13.5755 14.5584C12.9524 14.5584 12.8169 14.3949 12.7698 14.0616C12.7698 14.0236 12.7413 13.999 12.706 13.999H12.4003C12.3814 13.999 12.3634 14.007 12.35 14.0211C12.3367 14.0353 12.3292 14.0546 12.3292 14.0746C12.3292 14.5025 12.5413 15.0053 13.5702 15.0053C14.3106 15.0053 14.7392 14.6907 14.7392 14.1366C14.7392 13.5958 14.3979 13.4508 13.6753 13.3501C12.9461 13.2494 12.8699 13.1928 12.8699 13.0104C12.8699 12.8593 12.9349 12.6584 13.4752 12.6584C13.9576 12.6584 14.1398 12.7716 14.2105 13.1176C14.2138 13.1332 14.2219 13.1473 14.2335 13.1576C14.2451 13.1679 14.2596 13.1739 14.2747 13.1746H14.5862C14.6039 13.1746 14.6222 13.1623 14.6342 13.1498C14.6452 13.133 14.6513 13.1132 14.6516 13.0927C14.6047 12.4888 14.2348 12.2119 13.4823 12.2119Z" fill="#1B1B21"/>
</svg>
