<svg width="33" height="30" viewBox="0 0 33 30" fill="none" xmlns="http://www.w3.org/2000/svg">
<path d="M11.9665 22.0895C11.6663 23.5648 11.4715 24.2781 10.3327 24.3695C10.0521 24.3921 9.82355 24.6038 9.77979 24.8819C9.73593 25.1599 9.88832 25.4318 10.1484 25.5395C10.2216 25.5698 11.9634 26.2815 13.9984 26.2816C13.9987 26.2816 13.9989 26.2816 13.9991 26.2816C15.4172 26.2816 16.6337 25.9378 17.6147 25.2599C18.7771 24.4566 19.5786 23.1995 20.0047 21.525L16.0886 17.5776C12.7792 18.1133 12.3103 20.3988 11.9665 22.0895Z" fill="#1B1B21"/>
<path d="M32.767 4.75404C32.6617 4.64784 32.4739 4.52124 32.1775 4.52124C31.83 4.52124 30.9068 4.52124 25.3002 9.29215C22.7103 11.4959 19.7243 14.2222 17.3492 16.5421L21.0654 20.2878C23.5082 17.7488 26.3578 14.5663 28.6241 11.835C30.0552 10.1104 31.1557 8.68746 31.8949 7.6057C32.874 6.17287 33.3028 5.29406 32.767 4.75404Z" fill="#1B1B21"/>
<path d="M18.5381 26.5965C17.2805 27.4655 15.7534 27.906 13.9983 27.906C11.6883 27.9059 9.74244 27.1295 9.52649 27.0403C8.56961 26.6438 8.01396 25.6522 8.17518 24.6292C8.33305 23.627 9.13592 22.8654 10.1388 22.7564C10.2262 22.4954 10.3229 22.02 10.3746 21.7658C10.5653 20.8287 10.8263 19.5451 11.6293 18.4026C12.5062 17.1552 13.8279 16.3553 15.5635 16.0202C16.5596 15.0316 17.6961 13.9447 18.882 12.8416C18.2825 12.7116 17.7464 12.3211 17.4589 11.7305C16.964 10.7132 17.3957 9.48953 18.4218 8.99997C19.4506 8.5092 20.6845 8.93784 21.1787 9.95665C21.2763 10.1575 21.3366 10.3661 21.3647 10.5756C22.3483 9.69462 23.3251 8.83956 24.2473 8.05487C24.2527 8.0502 24.2579 8.04573 24.2635 8.04106C23.227 6.05765 21.7407 4.30034 19.9297 2.95481C17.3292 1.02267 14.2326 0.000812208 10.9751 0C10.974 0 10.9733 0 10.9725 0C8.77408 0 6.10171 0.768146 3.99799 2.00504C1.41944 3.52102 -0.000507494 5.5485 1.36061e-07 7.71374C0.000812344 10.3278 1.47517 11.4213 2.65988 12.2998C3.6259 13.0162 4.38887 13.582 4.38927 14.8221C4.38958 16.062 3.62702 16.6273 2.6615 17.3431C1.4772 18.2211 0.00314744 19.3139 0.00395965 21.9283C0.00456881 24.0932 1.42543 26.1212 4.00469 27.6385C6.10994 28.8769 8.78373 29.6467 10.9826 29.6473C10.9841 29.6473 10.9854 29.6473 10.9868 29.6473C14.9773 29.6473 18.7286 28.1071 21.55 25.3101C23.6655 23.2131 25.0685 20.5977 25.6388 17.7523C24.2223 19.323 22.7963 20.8482 21.5206 22.1506C20.9794 24.1077 19.9776 25.6018 18.5381 26.5965ZM11.2749 6.15156C11.5285 5.04787 12.6353 4.35892 13.7474 4.61172C14.858 4.8633 15.5539 5.96018 15.3021 7.06235C15.0484 8.1633 13.9409 8.85236 12.8287 8.60088C11.7172 8.35072 11.0211 7.25251 11.2749 6.15156ZM4.57415 9.913C3.86296 9.0281 4.00916 7.74024 4.90066 7.03585C5.79206 6.33279 7.09068 6.47695 7.80319 7.36023C8.51285 8.24381 8.36615 9.53167 7.47536 10.2375C6.58589 10.9421 5.28524 10.7964 4.57415 9.913ZM5.65967 23.4176C4.76766 22.7126 4.62096 21.4247 5.33215 20.5401C6.04283 19.6573 7.34195 19.5125 8.23386 20.2173C9.12506 20.9222 9.27186 22.2101 8.56128 23.0932C7.8507 23.9778 6.55147 24.1225 5.65967 23.4176Z" fill="#1B1B21"/>
</svg>
