<svg width="58" height="56" viewBox="0 0 58 56" fill="none" xmlns="http://www.w3.org/2000/svg">
<path d="M10.2705 0C4.59152 0 0 4.54731 0 10.1715V45.8285C0 51.4527 4.59152 56 10.2705 56H47.7295C53.4085 56 58 51.4527 58 45.8285V10.1715C58 4.54731 53.4085 0 47.7295 0H10.2705ZM20.7835 14.2396C22.765 14.2396 24.4085 14.4783 25.7615 14.9809C26.9748 15.3891 28.081 16.0597 29 16.944C29.7788 17.7175 30.3806 18.6478 30.7645 19.6718C31.127 20.6769 31.3195 21.7058 31.3195 22.7828C31.3195 24.841 30.8365 26.5399 29.8695 27.8802C28.9035 29.2201 27.5505 30.2256 25.9795 30.8C24.336 31.3986 22.5235 31.6135 20.542 31.6135C19.962 31.6135 19.5745 31.6135 19.333 31.5897C19.0915 31.566 18.753 31.566 18.294 31.566V39.248C18.318 39.4154 18.1975 39.5594 18.0285 39.5832H13.34C13.147 39.5832 13.0509 39.4867 13.0509 39.2713V14.6462C13.0509 14.4788 13.1234 14.3823 13.2924 14.3823C13.7034 14.3823 14.0899 14.3823 14.6455 14.359C15.2255 14.3347 15.8295 14.3356 16.482 14.3114C17.1345 14.2876 17.8355 14.2872 18.5845 14.2634C19.3339 14.2392 20.0585 14.2396 20.7835 14.2396ZM21.3227 18.9529C21.1993 18.9506 21.0759 18.9509 20.9525 18.9538C20.3245 18.9538 19.7685 18.9543 19.309 18.9785C18.826 18.9543 18.488 18.9781 18.3189 19.0019V27.0429C18.657 27.0671 18.9705 27.0905 19.2605 27.0905H20.542C21.4845 27.0905 22.427 26.9469 23.321 26.6597C24.0945 26.4443 24.771 25.9893 25.3025 25.3912C25.81 24.7926 26.052 23.9795 26.052 22.9263C26.0748 22.1786 25.8821 21.4399 25.4964 20.7967C25.0855 20.1748 24.505 19.6956 23.804 19.4326C23.0215 19.1185 22.1836 18.9696 21.3227 18.9529ZM41.591 20.1748C42.582 20.1748 43.597 20.2457 44.5875 20.3893C45.3125 20.4849 46.013 20.6774 46.6655 20.9408C46.7625 20.9646 46.859 21.0597 46.907 21.1553C46.9315 21.2508 46.956 21.3469 46.956 21.4424V25.3436C46.9564 25.3901 46.9457 25.436 46.9248 25.4775C46.9038 25.5191 46.8732 25.5552 46.8355 25.5828C46.618 25.6308 46.497 25.6308 46.4005 25.5828C45.6755 25.2 44.9015 24.9371 44.0795 24.7697C43.1855 24.5781 42.2915 24.4578 41.3735 24.4578C40.89 24.4336 40.382 24.5063 39.923 24.6256C39.6086 24.6974 39.343 24.8653 39.174 25.1044C39.0535 25.296 38.981 25.5352 38.981 25.7506C38.981 25.966 39.078 26.1813 39.2229 26.3725C39.4405 26.6359 39.73 26.8517 40.044 27.0196C40.6044 27.3065 41.1769 27.5695 41.76 27.8079C43.065 28.2387 44.3215 28.8378 45.4815 29.5557C46.279 30.0583 46.9315 30.7287 47.3905 31.5422C47.7792 32.3055 47.9704 33.1524 47.947 34.007C47.9662 35.1382 47.6372 36.2483 47.0036 37.1897C46.3297 38.1449 45.3893 38.885 44.2975 39.3194C43.113 39.8219 41.663 40.0853 39.923 40.0853C38.8111 40.0853 37.7245 39.9897 36.637 39.7744C35.7846 39.6285 34.9557 39.3709 34.172 39.0084C34.003 38.9128 33.8815 38.745 33.9055 38.5534V34.3897C33.9055 34.3179 33.9295 34.2219 34.002 34.1744C34.0745 34.1263 34.147 34.151 34.2195 34.1986C35.1505 34.7422 36.1618 35.138 37.2165 35.3715C38.135 35.6107 39.102 35.7301 40.0689 35.7301C40.987 35.7301 41.6395 35.6103 42.0745 35.3949C42.461 35.2275 42.7265 34.8205 42.7265 34.3897C42.7265 34.055 42.5335 33.7431 42.1465 33.4317C41.76 33.1208 40.9625 32.7622 39.7785 32.3077C38.5636 31.8838 37.4098 31.3045 36.3465 30.5846C35.5893 30.0501 34.962 29.3553 34.51 28.5506C34.1243 27.7947 33.9335 26.9561 33.9545 26.1096C33.9545 25.0806 34.244 24.0993 34.7755 23.214C35.3795 22.2569 36.2745 21.4909 37.3139 21.0126C38.4495 20.4382 39.8745 20.1748 41.591 20.1748Z" fill="#1B1B21"/>
</svg>
