<svg width="33" height="17" viewBox="0 0 33 17" fill="none" xmlns="http://www.w3.org/2000/svg">
<path d="M16.5 0C7.38736 0 0 3.80591 0 8.5C0 13.1941 7.38736 17 16.5 17C25.6124 17 33 13.1941 33 8.5C33 3.80591 25.6126 0 16.5 0ZM14.9578 2.47668H16.838V2.47744L16.3881 4.74155H18.0629C19.1165 4.74155 19.8438 4.92181 20.2434 5.28157C20.6438 5.64184 20.7634 6.22504 20.6039 7.03116L19.8168 10.9949H17.9069L18.6551 7.22581C18.7401 6.79712 18.7087 6.50502 18.561 6.349C18.4132 6.19322 18.0987 6.11547 17.6179 6.11547H16.1153L15.147 10.9944H13.2673L14.9578 2.47668ZM6.89133 4.7418H10.535C11.6312 4.7418 12.4312 5.02355 12.9339 5.58706C13.4367 6.15056 13.5877 6.93673 13.3872 7.9466C13.3047 8.36291 13.1647 8.74287 12.9682 9.08774C12.7715 9.4321 12.5145 9.74743 12.1974 10.0332C11.8189 10.3799 11.3987 10.6273 10.9364 10.7745C10.4739 10.9222 9.88453 10.9954 9.16833 10.9954H7.54566L7.09577 13.26H5.20085L6.89133 4.7418ZM21.681 4.7418H25.3239C26.4201 4.7418 27.2196 5.02355 27.7223 5.58706H27.7228C28.2256 6.15056 28.3772 6.93673 28.1766 7.9466C28.0941 8.36291 27.9546 8.74287 27.7582 9.08774C27.5614 9.4321 27.3044 9.74743 26.9868 10.0332C26.6086 10.3799 26.1881 10.6273 25.7253 10.7745C25.2628 10.9222 24.6742 10.9954 23.958 10.9954H22.3351L21.8854 13.26H19.9905L21.681 4.7418ZM8.51941 6.08618L7.81249 9.65099H8.9644C9.7283 9.65099 10.2978 9.51062 10.6716 9.22861C11.0455 8.94686 11.2976 8.47602 11.4288 7.81683C11.5539 7.1839 11.4969 6.73653 11.2571 6.47649C11.0174 6.21595 10.5378 6.08593 9.8175 6.08593L8.51941 6.08618ZM23.3083 6.08618L22.6009 9.65099H23.7533C24.5177 9.65099 25.0862 9.51062 25.4605 9.22861C25.8341 8.94686 26.0862 8.47602 26.2172 7.81683C26.3428 7.1839 26.2858 6.73653 26.046 6.47649C25.8063 6.21595 25.3262 6.08593 24.6064 6.08593L23.3083 6.08618Z" fill="#1B1B21"/>
</svg>
