<svg width="17" height="17" viewBox="0 0 17 17" fill="none" xmlns="http://www.w3.org/2000/svg">
<path d="M6.43945 8.22211H10.535C11.6751 8.22211 12.5732 7.268 12.5732 6.13564V2.27389C12.5732 1.17473 11.6417 0.348982 10.5288 0.165605C9.82459 0.0496046 9.09689 -0.00318577 8.39573 0.000148365C7.69485 0.00334357 7.04566 0.0623855 6.45673 0.165605C4.72139 0.468594 4.42671 1.10347 4.42671 2.27389V3.77661H8.49995V4.33229H2.85023C1.6586 4.33229 0.615005 5.04191 0.288725 6.38987C-0.087839 7.93468 -0.104553 8.87922 0.288725 10.4922C0.580172 11.6928 1.27613 12.5287 2.46791 12.5287H3.86488V10.716C3.86488 9.37725 5.04865 8.22211 6.43945 8.22211ZM6.18129 2.78887C5.75627 2.78887 5.41187 2.44448 5.41187 2.01855C5.41187 1.59081 5.75613 1.24322 6.18129 1.24322C6.60477 1.24322 6.95085 1.59081 6.95085 2.01855C6.95071 2.44448 6.60463 2.78887 6.18129 2.78887ZM16.6859 6.38987C16.3912 5.21626 15.8287 4.33229 14.6354 4.33229H13.135V6.13564C13.135 7.53181 11.8998 8.63888 10.535 8.63888H6.43945C5.31748 8.63888 4.42671 9.65662 4.42671 10.768V14.63C4.42671 15.7289 5.37409 16.3755 6.45799 16.6908C7.75609 17.0683 8.98536 17.1365 10.5384 16.6908C11.5706 16.395 12.5732 15.8002 12.5732 14.63V13.0844H8.49995V12.5287H14.6354C15.827 12.5287 16.2713 11.7263 16.6859 10.4921C17.1139 9.22166 17.0955 8.01943 16.6859 6.38987ZM10.793 14.1148C11.2182 14.1148 11.5626 14.4592 11.5626 14.8854C11.5626 15.3127 11.2183 15.6604 10.793 15.6604C10.3696 15.6604 10.0236 15.3128 10.0236 14.8854C10.0236 14.4592 10.3696 14.1148 10.793 14.1148Z" fill="#1B1B21"/>
</svg>
