<svg width="19" height="17" viewBox="0 0 19 17" fill="none" xmlns="http://www.w3.org/2000/svg">
<path d="M9.38014 10.0841C10.3236 10.0841 11.0883 9.31935 11.0883 8.37593C11.0883 7.43251 10.3236 6.66772 9.38014 6.66772C8.43673 6.66772 7.67194 7.43251 7.67194 8.37593C7.67194 9.31935 8.43673 10.0841 9.38014 10.0841Z" fill="#1B1B21"/>
<path d="M15.8683 5.55916C15.5387 5.43928 15.194 5.31941 14.8344 5.21452C14.9243 4.8549 14.9992 4.49528 15.0592 4.15064C15.3738 2.17272 15.0292 0.779181 14.0702 0.239748C13.7855 0.0749212 13.4708 0 13.1112 0C12.0623 0 10.7287 0.779181 9.38014 2.08281C8.03156 0.779181 6.69796 0 5.64906 0C5.28944 0 4.97477 0.0749212 4.69007 0.239748C3.73108 0.794165 3.38644 2.1877 3.70111 4.15064C3.76105 4.49528 3.83597 4.8549 3.92587 5.21452C3.56625 5.31941 3.22161 5.4243 2.89196 5.55916C1.01893 6.2784 0 7.26736 0 8.3762C0 9.48503 1.03391 10.474 2.89196 11.1932C3.22161 11.3131 3.56625 11.433 3.92587 11.5379C3.83597 11.8975 3.76105 12.2571 3.70111 12.6018C3.38644 14.5797 3.73108 15.9732 4.69007 16.5126C4.97477 16.6775 5.28944 16.7524 5.64906 16.7524C6.71295 16.7524 8.04654 15.9732 9.38014 14.6696C10.7287 15.9732 12.0623 16.7524 13.1112 16.7524C13.4708 16.7524 13.7855 16.6775 14.0702 16.5126C15.0292 15.9582 15.3738 14.5647 15.0592 12.6018C14.9992 12.2571 14.9243 11.8975 14.8344 11.5379C15.194 11.433 15.5387 11.3281 15.8683 11.1932C17.7414 10.474 18.7603 9.48503 18.7603 8.3762C18.7603 7.26736 17.7414 6.2784 15.8683 5.55916ZM13.6507 0.988961C14.265 1.34858 14.4748 2.45742 14.2201 4.03076C14.1751 4.34543 14.1002 4.67509 14.0103 5.01973C13.2311 4.83991 12.407 4.72004 11.5379 4.64512C11.0284 3.92587 10.504 3.28155 9.97951 2.69717C11.0883 1.60332 12.2122 0.854102 13.1262 0.854102C13.321 0.854102 13.5008 0.899055 13.6507 0.988961ZM11.9724 9.87462C11.7027 10.3541 11.388 10.8336 11.0584 11.3131C10.504 11.3581 9.94954 11.373 9.38014 11.373C8.79576 11.373 8.24134 11.3581 7.70191 11.3131C7.37225 10.8336 7.07257 10.3541 6.80285 9.87462C6.51815 9.38014 6.24843 8.87068 6.00869 8.3762C6.24843 7.88172 6.51815 7.37225 6.80285 6.87777C7.07257 6.39828 7.38724 5.91878 7.71689 5.43928C8.27131 5.39433 8.82573 5.37935 9.39513 5.37935C9.97951 5.37935 10.5339 5.39433 11.0734 5.43928C11.403 5.91878 11.7027 6.39828 11.9724 6.87777C12.2571 7.37225 12.5268 7.88172 12.7666 8.3762C12.5119 8.87068 12.2571 9.36516 11.9724 9.87462ZM13.2161 9.38014C13.4409 9.90459 13.6207 10.4141 13.7855 10.9235C13.276 11.0434 12.7366 11.1333 12.1672 11.2082C12.347 10.9235 12.5418 10.6238 12.7066 10.3092C12.8865 9.9945 13.0513 9.67983 13.2161 9.38014ZM9.38014 13.4409C9.02052 13.0513 8.67588 12.6317 8.34623 12.1972C8.69087 12.2122 9.03551 12.2272 9.38014 12.2272C9.72478 12.2272 10.0694 12.2122 10.4141 12.1972C10.0844 12.6317 9.73977 13.0513 9.38014 13.4409ZM6.59307 11.1932C6.02367 11.1183 5.48424 11.0284 4.97477 10.9085C5.1396 10.4141 5.31941 9.88961 5.54417 9.36516C5.709 9.66484 5.87383 9.97951 6.05364 10.2792C6.23345 10.6089 6.41326 10.8936 6.59307 11.1932ZM5.54417 7.37225C5.31941 6.8478 5.1396 6.33834 4.97477 5.82888C5.48424 5.709 6.02367 5.6191 6.59307 5.54417C6.41326 5.82888 6.21847 6.12856 6.05364 6.44323C5.87383 6.7579 5.709 7.07257 5.54417 7.37225ZM9.38014 3.31152C9.73977 3.70111 10.0844 4.12067 10.4141 4.55521C10.0694 4.54023 9.72478 4.52524 9.38014 4.52524C9.03551 4.52524 8.69087 4.54023 8.34623 4.55521C8.67588 4.12067 9.02052 3.70111 9.38014 3.31152ZM12.7066 6.45821L12.1672 5.55916C12.7366 5.63408 13.276 5.72399 13.7855 5.84386C13.6207 6.33834 13.4409 6.86279 13.2161 7.38724C13.0513 7.07257 12.8865 6.7579 12.7066 6.45821ZM4.54023 4.03076C4.2855 2.45742 4.49528 1.34858 5.10963 0.988961C5.25947 0.899055 5.43928 0.854102 5.63408 0.854102C6.53313 0.854102 7.65695 1.58833 8.78077 2.69717C8.25632 3.26657 7.73187 3.92587 7.22241 4.64512C6.35332 4.72004 5.52919 4.8549 4.75001 5.01973C4.6601 4.67509 4.60017 4.34543 4.54023 4.03076ZM0.839118 8.3762C0.839118 7.67194 1.69322 6.92273 3.19165 6.36831C3.49133 6.24843 3.82099 6.14354 4.15064 6.05364C4.39039 6.80285 4.69007 7.59702 5.04969 8.39118C4.69007 9.18535 4.3754 9.96453 4.15064 10.7137C2.08281 10.1144 0.839118 9.21532 0.839118 8.3762ZM5.10963 15.7634C4.49528 15.4038 4.2855 14.295 4.54023 12.7216C4.58518 12.407 4.6601 12.0773 4.75001 11.7327C5.52919 11.9125 6.35332 12.0324 7.22241 12.1073C7.73187 12.8265 8.25632 13.4708 8.78077 14.0552C7.67194 15.1491 6.54812 15.8983 5.63408 15.8983C5.43928 15.8983 5.25947 15.8533 5.10963 15.7634ZM14.2201 12.7216C14.4748 14.295 14.265 15.4038 13.6507 15.7634C13.5008 15.8533 13.321 15.8983 13.1262 15.8983C12.2272 15.8983 11.1033 15.1641 9.97951 14.0552C10.504 13.4858 11.0284 12.8265 11.5379 12.1073C12.407 12.0324 13.2311 11.8975 14.0103 11.7327C14.1002 12.0773 14.1601 12.407 14.2201 12.7216ZM15.5686 10.3841C15.269 10.504 14.9393 10.6089 14.6096 10.6988C14.3699 9.94954 14.0702 9.15538 13.7106 8.36121C14.0702 7.56705 14.3849 6.78787 14.6096 6.03865C16.6775 6.63803 17.9212 7.53708 17.9212 8.3762C17.9212 9.08046 17.0521 9.82967 15.5686 10.3841Z" fill="#1B1B21"/>
</svg>
