<svg width="30" height="30" viewBox="0 0 30 30" fill="none" xmlns="http://www.w3.org/2000/svg">
<path fill-rule="evenodd" clip-rule="evenodd" d="M27.9592 3.88392L20.9787 10.8898L25.1996 22.5006C25.4076 23.1656 25.2783 23.99 25.0095 24.2588C24.246 25.0232 23.7018 24.6598 23.4123 24.3394L16.6632 15.2212L9.19177 22.7188L10.5369 27.7116C10.0058 27.1796 6.90708 23.0298 6.83307 22.954C6.78343 22.9052 2.70677 19.8665 2.26744 19.4243L7.05508 20.717L14.6679 13.241L5.61439 6.54144C5.35491 6.30913 5.01301 5.62344 5.71181 4.92183C5.98159 4.65298 6.79655 4.57149 7.45975 4.78038L19.02 8.96947L26.0952 2.02169C26.5897 1.52709 27.5574 1.57769 27.9911 2.0114C28.4239 2.44511 28.4538 3.39026 27.9592 3.88392ZM29.2266 0.752433C28.0595 -0.418484 26.008 -0.144039 24.8343 1.0325L18.8607 6.992L7.78104 2.85165C6.71972 2.57719 5.65092 2.22217 4.33481 3.54202C3.66317 4.2146 2.26744 5.61408 4.33481 7.6852L11.9317 13.9051L6.98859 18.838L2.3761 17.6848C1.69228 17.5087 1.23142 17.6464 0.880147 18.0342C0.703104 18.2553 -0.581162 19.207 0.314356 20.1044L5.67714 24.2766L9.84936 29.6394C10.4976 30.2895 11.0999 29.8839 11.9233 29.1018C12.445 28.5791 12.3326 28.3102 12.1753 27.5486L11.1336 22.968L16.043 18.0417L22.2536 25.6405C24.32 27.7116 25.7167 26.3112 26.3883 25.6405C27.7054 24.3197 27.3513 23.25 27.0768 22.1868L22.9711 11.0884L28.9203 5.11853C30.0941 3.94293 30.3947 1.92241 29.2266 0.752433Z" fill="#1B1B21"/>
</svg>
