<svg width="19" height="17" viewBox="0 0 19 17" fill="none" xmlns="http://www.w3.org/2000/svg">
<path d="M0 8.5V17H19V0H0V8.5ZM15.311 7.82C15.766 7.91449 16.1796 8.12744 16.4996 8.432C16.6757 8.59608 16.8289 8.77876 16.9556 8.976C16.9556 8.99776 16.1348 9.49416 15.6347 9.7716C15.6165 9.78248 15.5435 9.71176 15.463 9.60432C15.3717 9.46338 15.242 9.34543 15.0859 9.26148C14.9299 9.17753 14.7527 9.13031 14.5707 9.12424C13.9946 9.08888 13.6238 9.35952 13.6268 9.80424C13.622 9.91496 13.6504 10.0248 13.7089 10.1225C13.835 10.3578 14.0706 10.4978 14.8094 10.7834C16.1698 11.307 16.7519 11.6525 17.1137 12.1434C17.518 12.6874 17.6077 13.566 17.3341 14.2161C17.0301 14.9233 16.2853 15.4034 15.2319 15.5625C14.7508 15.6118 14.2647 15.6072 13.7849 15.5489C13.0526 15.4426 12.377 15.1306 11.856 14.6581C11.6812 14.4854 11.3407 14.0352 11.362 14.0026C11.4175 13.9657 11.4759 13.9325 11.5368 13.9033L12.236 13.5442L12.7817 13.2614L12.8957 13.4123C13.0881 13.6586 13.3329 13.8684 13.6162 14.0298C14.2242 14.3154 15.0541 14.2759 15.4645 13.9454C15.6023 13.8243 15.6882 13.6638 15.7074 13.4919C15.7266 13.3199 15.6777 13.1474 15.5694 13.0043C15.4174 12.8153 15.1134 12.6562 14.2637 12.3243C13.2833 11.9462 12.8607 11.7123 12.4746 11.3397C12.2336 11.0938 12.0557 10.8037 11.9533 10.4897C11.8769 10.131 11.8656 9.7636 11.9198 9.40168C12.122 8.5544 12.8318 7.9628 13.8685 7.78736C14.3486 7.73421 14.8349 7.74613 15.311 7.82272V7.82ZM10.8513 8.53264V9.22896H8.38432V15.5162H6.6348V9.2276H4.16176V8.5476C4.15512 8.31351 4.16222 8.07927 4.18304 7.84584C4.19216 7.83496 5.70304 7.82952 7.52704 7.83224H10.8422L10.8513 8.53264Z" fill="#1B1B21"/>
</svg>
